<svg width="700" height="700" viewBox="0 0 700 700" fill="none" xmlns="http://www.w3.org/2000/svg">
<g id="cookies-svgrepo-com 1">
<g id="cookie">
<path id="Vector" d="M655.746 339.555L622.467 346.21C611.393 348.425 600.263 342.665 595.676 332.344L560.029 252.136C557.012 245.346 551.034 240.326 543.827 238.522L525.256 233.881C514.51 231.194 506.973 221.541 506.973 210.463V81.7621C506.973 75.7478 504.727 69.9493 500.676 65.5032L455.84 16.3036C415.417 3.50261 371.842 -2.20813 326.538 0.775068C152.42 12.2458 11.3687 153.886 0.744294 328.056C-11.652 531.3 149.509 700 350.074 700C541.375 700 696.73 546.499 699.924 355.959L671.276 341.636C666.474 339.233 661.009 338.502 655.746 339.555Z" fill="#FFE6A1"/>
<g id="Group">
<path id="Vector_2" d="M458.695 591.379C456.571 591.379 454.477 591.256 452.362 591.219C439.101 606.095 419.848 615.516 398.35 615.516C366.686 615.516 339.84 595.159 330 566.847C286.69 549.706 247.623 524.206 214.792 492.284C209.825 493.781 204.667 494.826 199.211 494.826C169.217 494.826 144.901 470.511 144.901 440.516C144.901 430.041 148.007 420.346 153.145 412.05C152.777 411.392 152.385 410.754 152.02 410.094C114.347 407.539 84.5575 376.251 84.5575 337.931C84.5575 315.346 94.9018 295.186 111.105 281.906C109.569 268.601 108.695 255.096 108.695 241.379C108.695 172.542 128.648 108.403 162.969 54.2732C65.0971 116.327 0.0750427 225.536 0.0750427 350C0.0750427 543.3 156.775 700 350.075 700C474.538 700 583.747 634.978 645.802 537.106C591.672 571.427 527.533 591.379 458.695 591.379Z" fill="#E3B05D"/>
<path id="Vector_3" d="M271.628 289.655C288.291 289.655 301.8 276.146 301.8 259.483C301.8 242.819 288.291 229.31 271.628 229.31C254.964 229.31 241.455 242.819 241.455 259.483C241.455 276.146 254.964 289.655 271.628 289.655Z" fill="#E3B05D"/>
<path id="Vector_4" d="M591.455 488.793C608.119 488.793 621.628 475.284 621.628 458.62C621.628 441.956 608.119 428.448 591.455 428.448C574.791 428.448 561.283 441.956 561.283 458.62C561.283 475.284 574.791 488.793 591.455 488.793Z" fill="#E3B05D"/>
<path id="Vector_5" d="M316.886 488.793C328.55 488.793 338.006 479.337 338.006 467.672C338.006 456.008 328.55 446.552 316.886 446.552C305.221 446.552 295.766 456.008 295.766 467.672C295.766 479.337 305.221 488.793 316.886 488.793Z" fill="#E3B05D"/>
<path id="Vector_6" d="M479.817 295.689C491.482 295.689 500.938 286.233 500.938 274.568C500.938 262.904 491.482 253.448 479.817 253.448C468.153 253.448 458.697 262.904 458.697 274.568C458.697 286.233 468.153 295.689 479.817 295.689Z" fill="#E3B05D"/>
<path id="Vector_7" d="M395.335 108.62C406.999 108.62 416.455 99.1643 416.455 87.5C416.455 75.8357 406.999 66.3796 395.335 66.3796C383.67 66.3796 374.214 75.8357 374.214 87.5C374.214 99.1643 383.67 108.62 395.335 108.62Z" fill="#E3B05D"/>
</g>
<g id="Group_2">
<path id="Vector_8" d="M332.512 310.879L318.56 334.134C310.22 348.033 317.68 366.039 333.404 369.969L374.934 380.351C387.867 383.585 400.973 375.722 404.205 362.789L408.956 343.785C409.917 339.94 409.917 335.921 408.956 332.076L403.933 311.983C400.809 299.482 388.416 291.64 375.782 294.167L348.477 299.627C341.808 300.963 336.012 305.049 332.512 310.879Z" fill="#B97850"/>
<path id="Vector_9" d="M402.175 460.295L387.624 484.546C380.39 496.604 384.951 512.268 397.526 518.555L443.849 541.716C457.661 548.624 474.316 540.962 478.061 525.982L482.834 506.896L488.41 484.585C491.881 470.699 482.576 456.859 468.405 454.835L426.284 448.816C416.672 447.444 407.171 451.968 402.175 460.295Z" fill="#B97850"/>
<path id="Vector_10" d="M148.221 316.31L130.463 345.908C124.764 355.406 126.261 367.563 134.092 375.396L162.041 403.345C172.214 413.519 188.97 412.59 197.958 401.356L221.918 371.405C226.624 365.523 228.314 357.781 226.486 350.471L221.021 328.613C218.759 319.562 211.485 312.628 202.339 310.797L173.652 305.061C163.65 303.059 153.469 307.562 148.221 316.31Z" fill="#B97850"/>
<path id="Vector_11" d="M246.491 120.339L232.798 143.162C224.853 156.404 231.214 173.597 245.863 178.481L275.579 188.386C284.252 191.276 293.814 189.019 300.279 182.555L316.274 166.56C322.269 160.565 324.68 151.863 322.624 143.638L318.44 126.905C315.754 116.158 306.099 108.619 295.021 108.619H267.188C258.711 108.62 250.854 113.069 246.491 120.339Z" fill="#B97850"/>
<path id="Vector_12" d="M538.01 306.893L524.039 320.864C514.614 330.289 514.614 345.573 524.039 355L530.876 361.837C538.224 369.184 549.446 371.006 558.739 366.359L598.274 346.591C608.393 341.531 613.641 330.124 610.898 319.148L609.106 311.986C605.983 299.485 593.591 291.643 580.956 294.17L550.346 300.292C545.672 301.224 541.381 303.523 538.01 306.893Z" fill="#B97850"/>
<path id="Vector_13" d="M448.259 134.608L432.229 155.982C426.34 163.833 425.791 174.469 430.841 182.884L445.674 207.604C452.764 219.423 468.294 222.914 479.76 215.271L509.879 195.191C521.41 187.504 524.114 171.709 515.801 160.624L499.427 138.793C496.481 134.865 492.408 131.928 487.75 130.376L475.201 126.193C465.344 122.905 454.491 126.295 448.259 134.608Z" fill="#B97850"/>
<path id="Vector_14" d="M241.704 515.956L225.943 535.657C215.824 548.305 220.789 567.131 235.827 573.149L256.999 581.616C262.754 583.919 269.173 583.919 274.928 581.616L298.686 572.112C312.921 566.419 318.311 549.068 309.807 536.311L305.726 530.19C303.395 526.694 300.194 523.869 296.438 521.989L271.35 509.446C261.166 504.356 248.813 507.069 241.704 515.956Z" fill="#B97850"/>
</g>
<g id="Group_3">
<path id="Vector_15" d="M191.991 400.478L164.044 372.53C156.212 364.699 154.714 352.54 160.414 343.044L178.172 313.446C179.686 310.921 181.689 308.872 183.901 307.111L173.654 305.064C163.651 303.063 153.469 307.566 148.221 316.312L130.463 345.911C124.764 355.409 126.261 367.566 134.092 375.399L162.041 403.346C171.47 412.776 186.479 412.549 195.789 403.536C194.455 402.651 193.17 401.658 191.991 400.478Z" fill="#5A4D47"/>
<path id="Vector_16" d="M299.754 179.794L270.037 169.889C255.389 165.006 249.026 147.812 256.973 134.571L270.666 111.747C271.362 110.585 272.282 109.629 273.145 108.62H267.187C258.709 108.62 250.851 113.069 246.489 120.34L232.795 143.162C224.849 156.404 231.209 173.597 245.86 178.481L275.576 188.386C284.249 191.276 293.811 189.019 300.277 182.555L302.526 180.306C301.601 180.115 300.664 180.097 299.754 179.794Z" fill="#5A4D47"/>
<path id="Vector_17" d="M397.835 373.411L356.306 363.029C340.58 359.097 333.121 341.093 341.462 327.194L355.414 303.939C357.075 301.171 359.282 298.834 361.826 296.96L348.477 299.63C341.809 300.963 336.011 305.05 332.512 310.882L318.56 334.136C310.22 348.036 317.68 366.041 333.404 369.972L374.934 380.354C383.682 382.542 392.432 379.572 398.228 373.471C398.096 373.438 397.966 373.444 397.835 373.411Z" fill="#5A4D47"/>
<path id="Vector_18" d="M468.219 205.517L453.386 180.797C448.338 172.382 448.886 161.748 454.774 153.895L470.804 132.521C472.56 130.179 474.739 128.345 477.102 126.823L475.2 126.19C465.343 122.905 454.49 126.295 448.256 134.606L432.226 155.98C426.338 163.831 425.79 174.467 430.839 182.882L445.671 207.602C452.739 219.38 468.184 222.874 479.638 215.331C475.049 213.421 470.985 210.126 468.219 205.517Z" fill="#5A4D47"/>
<path id="Vector_19" d="M550.248 360.229C540.821 350.802 540.821 335.52 550.248 326.094L564.219 312.122C567.588 308.754 571.88 306.455 576.554 305.521L602.319 300.369C596.806 295.129 588.935 292.571 580.955 294.168L550.345 300.291C545.672 301.226 541.381 303.522 538.01 306.891L524.039 320.862C514.614 330.289 514.614 345.571 524.039 354.999L530.876 361.836C537.769 368.728 548.022 370.534 556.941 366.926L550.248 360.229Z" fill="#5A4D47"/>
<path id="Vector_20" d="M427.428 516.531C414.853 510.243 410.29 494.579 417.526 482.521L432.076 458.271C433.985 455.093 436.682 452.683 439.657 450.729L426.286 448.819C416.672 447.445 407.171 451.968 402.176 460.295L387.625 484.546C380.391 496.604 384.952 512.268 397.528 518.555L443.851 541.716C453.084 546.334 463.503 544.341 470.569 538.104L427.428 516.531Z" fill="#5A4D47"/>
<path id="Vector_21" d="M281.136 577.582L259.965 569.114C244.927 563.099 239.963 544.271 250.081 531.623L265.841 511.922C266.842 510.671 267.966 509.577 269.153 508.576C259.437 504.856 248.314 507.692 241.704 515.957L225.943 535.657C215.824 548.305 220.789 567.132 235.827 573.149L256.999 581.617C262.754 583.919 269.173 583.919 274.928 581.617L283.373 578.239C282.625 578.021 281.864 577.874 281.136 577.582Z" fill="#5A4D47"/>
</g>
<path id="Vector_22" d="M96.6129 494.815C94.8036 494.815 92.9579 494.404 91.2271 493.542C85.2636 490.561 82.8464 483.313 85.83 477.349L97.8993 453.211C100.882 447.248 108.112 444.856 114.092 447.814C120.056 450.797 122.473 458.044 119.49 464.007L107.42 488.144C105.305 492.375 101.045 494.815 96.6129 494.815Z" fill="#C98850"/>
<path id="Vector_23" d="M313.868 651.724H301.798C295.133 651.724 289.729 646.326 289.729 639.653C289.729 632.983 295.133 627.584 301.798 627.584H313.868C320.533 627.584 325.937 632.982 325.937 639.653C325.937 646.326 320.533 651.724 313.868 651.724Z" fill="#925F4A"/>
<path id="Vector_24" d="M265.58 422.413C263.771 422.413 261.926 422.001 260.195 421.14C254.231 418.157 251.814 410.909 254.797 404.947L266.866 380.809C269.843 374.858 277.074 372.454 283.06 375.412C289.024 378.395 291.441 385.641 288.457 391.605L276.388 415.743C274.273 419.974 270.011 422.413 265.58 422.413Z" fill="#C98850"/>
<g id="Group_4">
<path id="Vector_25" d="M193.167 229.31C191.359 229.31 189.513 228.899 187.782 228.037L163.644 215.968C157.681 212.984 155.264 205.739 158.246 199.775C161.223 193.824 168.459 191.406 174.439 194.377L198.577 206.445C204.541 209.429 206.958 216.674 203.975 222.639C201.86 226.87 197.599 229.31 193.167 229.31Z" fill="#925F4A"/>
<path id="Vector_26" d="M338.007 60.3436H313.869C307.204 60.3436 301.8 54.9459 301.8 48.2741C301.8 41.6022 307.204 36.2045 313.869 36.2045H338.007C344.672 36.2045 350.076 41.6022 350.076 48.2741C350.076 54.9459 344.672 60.3436 338.007 60.3436Z" fill="#925F4A"/>
</g>
<path id="Vector_27" d="M386.295 241.379C381.862 241.379 377.602 238.939 375.487 234.708L363.418 210.57C360.434 204.606 362.851 197.358 368.815 194.377C374.791 191.406 382.033 193.824 385.008 199.775L397.078 223.913C400.061 229.876 397.644 237.125 391.68 240.106C389.946 240.967 388.104 241.379 386.295 241.379Z" fill="#C98850"/>
<g id="Group_5">
<path id="Vector_28" d="M55.0785 300.476C53.4556 299.676 51.9832 298.491 50.8088 296.953C46.7756 291.643 47.8133 284.073 53.1248 280.041L74.6199 263.722C79.9257 259.688 87.4907 260.735 91.5321 266.039C95.5649 271.349 94.5271 278.919 89.2157 282.95L67.7222 299.268C63.9529 302.128 59.0529 302.434 55.0785 300.476Z" fill="#925F4A"/>
<path id="Vector_29" d="M506.972 434.483C503.883 434.483 500.795 433.304 498.439 430.947L474.302 406.809C469.588 402.095 469.588 394.456 474.302 389.743C479.016 385.029 486.654 385.029 491.369 389.743L515.506 413.881C520.22 418.594 520.22 426.233 515.506 430.947C513.148 433.304 510.059 434.483 506.972 434.483Z" fill="#925F4A"/>
</g>
<path id="Vector_30" d="M531.11 555.173C528.022 555.173 524.934 553.994 522.578 551.637C517.864 546.923 517.864 539.284 522.578 534.571L534.647 522.501C539.361 517.787 547 517.787 551.714 522.501C556.428 527.215 556.428 534.854 551.714 539.568L539.644 551.637C537.286 553.994 534.199 555.173 531.11 555.173Z" fill="#C98850"/>
</g>
<g id="crumbs">
<g id="Group_6">
<path id="Vector_31" d="M549.001 60.0695V90.5191C549.001 99.0591 557.623 104.897 565.552 101.725L601.759 87.242C606.341 85.4091 609.346 80.9711 609.346 76.0369V60.0695C609.346 53.4045 603.941 48 597.276 48H561.069C554.405 48 549.001 53.4045 549.001 60.0695Z" fill="#FFE6A1"/>
<path id="Vector_32" d="M574.804 155.218L567.102 209.131C565.291 221.813 573.703 233.702 586.264 236.213L608.367 240.634C617.959 242.553 627.759 238.493 633.185 230.354L641.498 217.886C645.803 211.426 646.741 203.289 644.015 196.021L618.835 128.877C615.703 120.526 604.991 118.206 598.684 124.513L581.633 141.563C577.939 145.256 575.544 150.048 574.804 155.218Z" fill="#FFE6A1"/>
</g>
<g id="Group_7">
<path id="Vector_33" d="M635.311 219.195L613.207 214.775C600.646 212.262 592.235 200.373 594.047 187.693L601.748 133.78C602.435 128.972 604.678 124.581 607.939 121.006C604.664 120.841 601.301 121.895 598.685 124.509L581.632 141.561C577.939 145.253 575.543 150.046 574.806 155.215L567.104 209.127C565.293 221.811 573.705 233.698 586.266 236.21L608.369 240.63C617.96 242.547 627.762 238.489 633.188 230.35L640.459 219.443C638.748 219.477 637.035 219.541 635.311 219.195Z" fill="#E3B05D"/>
<path id="Vector_34" d="M589.69 77.5859C581.762 80.7564 573.139 74.9185 573.139 66.3804V48H561.069C554.404 48 549 53.4045 549 60.0695V90.5191C549 99.0591 557.623 104.897 565.551 101.725L601.759 87.242C606.34 85.4091 609.345 80.9724 609.345 76.0369V69.7246L589.69 77.5859Z" fill="#E3B05D"/>
<path id="Vector_35" d="M627.161 284.667L620.027 298.934C618.329 302.332 618.329 306.331 620.027 309.729L623.282 316.242C626.529 322.734 634.731 324.914 640.771 320.887L660.228 307.917C663.586 305.677 665.602 301.909 665.602 297.875V284.872C665.602 276.634 657.532 270.817 649.717 273.423L634.138 278.615C631.103 279.626 628.593 281.802 627.161 284.667Z" fill="#E3B05D"/>
</g>
</g>
</g>
</svg>
