<svg width="300" height="300" viewBox="0 0 300 300" fill="none" xmlns="http://www.w3.org/2000/svg">
<g id="iconmonstr-shopping-cart-25 1">
<path id="wheels" d="M144.5 254.75C144.5 244.387 152.9 236 163.25 236C173.6 236 182 244.4 182 254.75C182 265.112 173.6 273.5 163.25 273.5C152.9 273.5 144.5 265.112 144.5 254.75Z" fill="black"/>
<path id="wheels_2" d="M100.75 273.5C111.1 273.5 119.5 265.112 119.5 254.75C119.5 244.4 111.1 236 100.75 236C90.4 236 82 244.4 82 254.75C82 265.112 90.4 273.5 100.75 273.5Z" fill="black"/>
<path id="Vector" d="M247.55 25L204.662 200H178.387L210.15 62.5H0L57.6875 225H223.175L266.6 50H293.825L300 25H247.55Z" fill="black"/>
</g>
</svg>
